<?xml version="1.0" encoding="UTF-8" standalone="no"?>
<!-- Generator: Adobe Illustrator 16.0.0, SVG Export Plug-In . SVG Version: 6.00 Build 0)  -->

<svg
   xmlns:dc="http://purl.org/dc/elements/1.1/"
   xmlns:cc="http://creativecommons.org/ns#"
   xmlns:rdf="http://www.w3.org/1999/02/22-rdf-syntax-ns#"
   xmlns:svg="http://www.w3.org/2000/svg"
   xmlns="http://www.w3.org/2000/svg"
   xmlns:sodipodi="http://sodipodi.sourceforge.net/DTD/sodipodi-0.dtd"
   xmlns:inkscape="http://www.inkscape.org/namespaces/inkscape"
   version="1.1"
   id="Layer_1"
   x="0px"
   y="0px"
   width="483"
   height="357"
   viewBox="0 0 483 357"
   enable-background="new 0 0 512 512"
   xml:space="preserve"
   sodipodi:docname="image_icon.svg"
   inkscape:export-filename="/home/m/repoes/scanify/src/image_icon.png"
   inkscape:export-xdpi="30"
   inkscape:export-ydpi="30"
   inkscape:version="0.92.3 (2405546, 2018-03-11)"><metadata
   id="metadata13"><rdf:RDF><cc:Work
       rdf:about=""><dc:format>image/svg+xml</dc:format><dc:type
         rdf:resource="http://purl.org/dc/dcmitype/StillImage" /><dc:title></dc:title></cc:Work></rdf:RDF></metadata><defs
   id="defs11" /><sodipodi:namedview
   pagecolor="#ffffff"
   bordercolor="#666666"
   borderopacity="1"
   objecttolerance="10"
   gridtolerance="10"
   guidetolerance="10"
   inkscape:pageopacity="0"
   inkscape:pageshadow="2"
   inkscape:window-width="1885"
   inkscape:window-height="1025"
   id="namedview9"
   showgrid="false"
   fit-margin-top="0"
   fit-margin-left="0"
   fit-margin-right="0"
   fit-margin-bottom="0"
   inkscape:zoom="1.3037281"
   inkscape:cx="381.52386"
   inkscape:cy="151.4871"
   inkscape:window-x="35"
   inkscape:window-y="27"
   inkscape:window-maximized="1"
   inkscape:current-layer="Layer_1" />
<rect
   style="opacity:1;fill:#ffffff;fill-opacity:1;stroke:#ff0000;stroke-width:11.43127918;stroke-miterlimit:4;stroke-dasharray:none;stroke-dashoffset:0;stroke-opacity:1"
   id="rect828"
   width="124.93338"
   height="59.735729"
   x="341.94879"
   y="69.706573" /><ellipse
   style="opacity:1;fill:#ffffff;fill-opacity:1;stroke:#ff0000;stroke-width:9.79530144;stroke-miterlimit:4;stroke-dasharray:none;stroke-dashoffset:0;stroke-opacity:1"
   id="path826"
   cx="235.70483"
   cy="212.71155"
   rx="138.48994"
   ry="133.85153" /><g
   id="g6"
   transform="translate(-14,-78)">
	<circle
   cx="255.811"
   cy="285.30899"
   r="75.217003"
   id="circle2"
   style="fill:#282c34;fill-opacity:1" />
	<path
   d="M 477,137 H 352.718 L 349,108 C 349,91.432 335.568,78 319,78 H 191 c -16.568,0 -30,13.432 -30,30 l -3.718,29 H 34 c -11.046,0 -20,8.454 -20,19.5 v 258 c 0,11.046 8.954,20.5 20,20.5 h 443 c 11.046,0 20,-9.454 20,-20.5 v -258 C 497,145.454 488.046,137 477,137 Z M 255.595,408.562 c -67.928,0 -122.994,-55.066 -122.994,-122.993 0,-67.928 55.066,-122.994 122.994,-122.994 67.928,0 122.994,55.066 122.994,122.994 0,67.926 -55.066,122.993 -122.994,122.993 z M 474,190 H 369 v -31 h 105 z"
   id="path4"
   style="fill:#282c34;fill-opacity:1"
   inkscape:connector-curvature="0" />
</g>
</svg>